<?xml version="1.0" encoding="UTF-8" standalone="no"?>
<!DOCTYPE svg PUBLIC "-//W3C//DTD SVG 1.1//EN" "http://www.w3.org/Graphics/SVG/1.1/DTD/svg11.dtd">
<svg width="100%" height="100%" viewBox="0 0 3623 624" version="1.1" xmlns="http://www.w3.org/2000/svg" xmlns:xlink="http://www.w3.org/1999/xlink" xml:space="preserve" xmlns:serif="http://www.serif.com/" style="fill-rule:evenodd;clip-rule:evenodd;stroke-linejoin:round;stroke-miterlimit:2;">
    <g transform="matrix(1,0,0,1,-435,-3424)">
        <g transform="matrix(1.88644,0,0,0.577534,435.713,3424.26)">
            <rect id="kg-logo" x="0" y="0" width="1920" height="1080" style="fill:none;"/>
            <g id="kg-logo1" serif:id="kg-logo">
                <g transform="matrix(1.26672,0,0,2.06497,-347.381,-388.949)">
                    <g transform="matrix(0.792408,0,0,1.62631,-1498.15,-788.335)">
                        <g>
                            <path d="M2667.52,761.45L2721.66,693.857L2699.07,693.857L2652.05,752.83L2652.05,693.857L2633.73,693.857L2633.73,828.848L2652.05,828.848L2652.05,771.051L2708.23,828.848L2732.86,828.848L2667.52,761.45Z" style="fill:rgb(255,255,255);fill-rule:nonzero;"/>
                            <path d="M2802.98,831.2C2843.08,831.2 2874.22,799.852 2874.22,761.646C2874.22,723.245 2843.08,691.505 2802.98,691.505C2763.09,691.505 2732.15,723.245 2732.15,761.646C2732.15,799.852 2763.09,831.2 2802.98,831.2ZM2802.98,814.742C2773.47,814.742 2750.67,790.447 2750.67,761.646C2750.67,732.65 2773.47,707.963 2802.98,707.963C2832.9,707.963 2855.7,732.65 2855.7,761.646C2855.7,790.447 2832.9,814.742 2802.98,814.742Z" style="fill:rgb(255,255,255);fill-rule:nonzero;"/>
                            <rect x="2903.73" y="693.857" width="18.522" height="134.992" style="fill:rgb(255,255,255);fill-rule:nonzero;"/>
                            <path d="M3043.77,796.325L2979.45,693.857L2961.13,693.857L2961.13,828.848L2979.65,828.848L2979.65,725.988L3044.38,828.848L3062.29,828.848L3062.29,693.857L3043.77,693.857L3043.77,796.325Z" style="fill:rgb(255,255,255);fill-rule:nonzero;"/>
                            <path d="M3162.22,831.2C3202.32,831.2 3233.46,799.852 3233.46,761.646C3233.46,723.245 3202.32,691.505 3162.22,691.505C3122.33,691.505 3091.39,723.245 3091.39,761.646C3091.39,799.852 3122.33,831.2 3162.22,831.2ZM3162.22,814.742C3132.71,814.742 3109.91,790.447 3109.91,761.646C3109.91,732.65 3132.71,707.963 3162.22,707.963C3192.14,707.963 3214.94,732.65 3214.94,761.646C3214.94,790.447 3192.14,814.742 3162.22,814.742Z" style="fill:rgb(255,255,255);fill-rule:nonzero;"/>
                            <path d="M3303.28,831.2C3332.38,831.2 3350.09,811.803 3350.09,790.839C3350.09,771.639 3335.84,759.883 3312.03,753.809L3293.71,749.107C3274.99,744.405 3273.36,735.001 3273.36,730.299C3273.36,716.976 3286.38,707.963 3300.43,707.963C3315.49,707.963 3327.09,717.172 3327.09,730.69L3345.41,730.69C3345.41,706.592 3325.66,691.505 3301.04,691.505C3276.61,691.505 3254.83,707.179 3254.83,730.494C3254.83,741.466 3259.52,758.316 3289.23,765.173L3307.35,769.483C3319.15,772.422 3331.57,778.3 3331.57,791.427C3331.57,803.378 3321.39,814.742 3303.28,814.742C3284.55,814.742 3272.75,802.595 3272.14,790.643L3253.82,790.643C3254.02,811.607 3273.76,831.2 3303.28,831.2Z" style="fill:rgb(255,255,255);fill-rule:nonzero;"/>
                            <path d="M3491.55,831.2C3531.44,831.2 3557.9,808.472 3557.9,761.255L3496.84,761.255L3496.84,776.733L3537.55,776.733C3537.55,798.284 3516.79,814.742 3491.55,814.742C3462.04,814.742 3439.04,790.643 3439.04,761.646C3439.04,732.65 3462.04,707.963 3491.55,707.963C3504.78,707.963 3516.99,713.057 3525.95,720.698L3538.77,709.139C3526.56,698.363 3510.07,691.505 3491.55,691.505C3451.66,691.505 3420.51,723.245 3420.51,761.646C3420.51,799.852 3451.66,831.2 3491.55,831.2Z" style="fill:rgb(255,255,255);fill-rule:nonzero;"/>
                            <path d="M3680.03,828.848L3642.78,778.104C3667.81,776.341 3679.41,755.573 3679.41,735.98C3679.41,715.016 3667.61,693.857 3637.08,693.857L3584.36,693.857L3584.36,828.848L3602.88,828.848L3602.88,777.908L3621,777.908L3657.84,828.848L3680.03,828.848ZM3637.49,710.314C3651.73,710.314 3660.89,720.894 3660.89,735.98C3660.89,751.262 3652.75,761.646 3632.19,761.646L3602.88,761.646L3602.88,710.314L3637.49,710.314Z" style="fill:rgb(255,255,255);fill-rule:nonzero;"/>
                            <path d="M3771.21,831.2C3811.31,831.2 3842.45,799.852 3842.45,761.646C3842.45,723.245 3811.31,691.505 3771.21,691.505C3731.32,691.505 3700.38,723.245 3700.38,761.646C3700.38,799.852 3731.32,831.2 3771.21,831.2ZM3771.21,814.742C3741.7,814.742 3718.9,790.447 3718.9,761.646C3718.9,732.65 3741.7,707.963 3771.21,707.963C3801.13,707.963 3823.93,732.65 3823.93,761.646C3823.93,790.447 3801.13,814.742 3771.21,814.742Z" style="fill:rgb(255,255,255);fill-rule:nonzero;"/>
                            <path d="M3921.42,831.2C3949.1,831.2 3972.51,813.566 3972.51,782.806L3972.51,693.857L3953.99,693.857L3953.99,782.806C3953.99,804.162 3938.93,814.154 3921.42,814.154C3903.92,814.154 3888.86,804.162 3888.86,782.806L3888.86,693.857L3870.33,693.857L3870.33,782.806C3870.33,813.566 3893.74,831.2 3921.42,831.2Z" style="fill:rgb(255,255,255);fill-rule:nonzero;"/>
                            <path d="M4009.96,693.857L4009.96,828.848L4028.48,828.848L4028.48,778.104L4065.73,778.104C4095.45,778.104 4107.45,757.336 4107.45,735.98C4107.45,715.016 4095.45,693.857 4065.73,693.857L4009.96,693.857ZM4028.48,761.45L4028.48,710.314L4065.53,710.314C4082.22,710.314 4088.93,723.441 4088.93,735.98C4088.93,748.911 4082.01,761.45 4064.51,761.45L4028.48,761.45Z" style="fill:rgb(255,255,255);fill-rule:nonzero;"/>
                        </g>
                    </g>
                    <g transform="matrix(-0.962653,2.35207e-16,-2.51401e-16,-4.09568,1180.91,8991.4)">
                        <g transform="matrix(0.984472,0,0,0.461655,287.387,476.425)">
                            <path d="M546.458,3586.68L629.596,3442.68L629.596,3535.96C629.596,3537.64 628.699,3539.2 627.242,3540.04L546.458,3586.68Z" style="fill:rgb(160,160,160);"/>
                        </g>
                        <g transform="matrix(0.984472,0,-2.27613e-32,0.461655,287.387,476.425)">
                            <path d="M450.404,3442.68L533.542,3586.68L453.633,3540.54C451.635,3539.39 450.404,3537.26 450.404,3534.95L450.404,3442.68Z" style="fill:rgb(160,160,160);"/>
                        </g>
                        <g transform="matrix(0.984472,1.2326e-32,-2.46519e-32,0.461655,287.387,476.425)">
                            <path d="M623.138,3431.49L456.862,3431.49L537.646,3384.85C539.103,3384.01 540.897,3384.01 542.354,3384.85L623.138,3431.49Z" style="fill:rgb(160,160,160);"/>
                        </g>
                    </g>
                </g>
            </g>
        </g>
    </g>
</svg>
