<svg width="21" height="18" viewBox="0 0 21 18" xmlns="http://www.w3.org/2000/svg">
    <path d="M14.9 10.162a.09.09 0 0 1 .077.134l-4.43 7.66a.09.09 0 0 1-.076.044H7.763a.09.09 0 0 1-.077-.134l4.429-7.66a.09.09 0 0 1 .077-.044H14.9zm-2.634-2.196a.09.09 0 0 1-.077-.044L7.686.134A.09.09 0 0 1 7.763 0h2.708a.09.09 0 0 1 .077.045l4.503 7.787a.09.09 0 0 1-.077.134h-2.708zm.536-7.832A.09.09 0 0 1 12.879 0h2.711a.09.09 0 0 1 .078.045l5.162 8.91a.09.09 0 0 1 0 .09l-5.162 8.91a.09.09 0 0 1-.078.045h-2.71a.09.09 0 0 1-.078-.134L17.938 9 12.802.134zm-2.204 8.82a.089.089 0 0 1 0 .09l-5.186 8.911a.09.09 0 0 1-.156 0L.012 9.046a.089.089 0 0 1 0-.09L5.2.045a.09.09 0 0 1 .156 0l5.243 8.91z" fill="#899AAB" fill-rule="nonzero"/>
</svg>
