<svg width="24" height="18" viewBox="0 0 24 18" xmlns="http://www.w3.org/2000/svg">
    <path d="M19.986 1.557a.06.06 0 0 0-.031-.028A19.446 19.446 0 0 0 15.157.04a.073.073 0 0 0-.077.037c-.22.398-.42.808-.597 1.226a17.954 17.954 0 0 0-5.39 0C8.914.884 8.711.475 8.487.078A.076.076 0 0 0 8.41.04 19.39 19.39 0 0 0 3.61 1.53a.069.069 0 0 0-.031.027C.524 6.12-.313 10.571.097 14.967a.08.08 0 0 0 .031.056 19.55 19.55 0 0 0 5.886 2.974c.03.009.064-.002.083-.027.454-.619.857-1.274 1.204-1.958a.075.075 0 0 0-.04-.104 12.876 12.876 0 0 1-1.84-.876.076.076 0 0 1-.007-.126c.124-.092.247-.188.365-.286a.073.073 0 0 1 .076-.01c3.858 1.76 8.035 1.76 11.847 0a.073.073 0 0 1 .077.01c.118.097.241.194.366.286a.076.076 0 0 1-.007.126c-.587.343-1.203.636-1.84.875a.075.075 0 0 0-.04.105c.353.68.755 1.335 1.204 1.957a.075.075 0 0 0 .083.028 19.485 19.485 0 0 0 5.895-2.974.075.075 0 0 0 .03-.055c.492-5.082-.822-9.497-3.484-13.411zM7.877 12.29c-1.161 0-2.118-1.066-2.118-2.375 0-1.31.938-2.375 2.118-2.375 1.19 0 2.137 1.075 2.119 2.375 0 1.309-.939 2.375-2.119 2.375zm7.833 0c-1.162 0-2.119-1.066-2.119-2.375 0-1.31.939-2.375 2.119-2.375 1.19 0 2.137 1.075 2.118 2.375 0 1.309-.929 2.375-2.118 2.375z" fill="#899AAB" fill-rule="nonzero"/>
</svg>
